<svg width="64" height="24" viewBox="0 0 64 24" fill="none" xmlns="http://www.w3.org/2000/svg">
<g clip-path="url(#clip0_30_608)">
<path d="M52 11V8L56 12L52 16V13H48V11H52ZM52 2C57.52 2 62 6.48 62 12C62 17.52 57.52 22 52 22C46.48 22 42 17.52 42 12C42 6.48 46.48 2 52 2ZM52 20C56.42 20 60 16.42 60 12C60 7.58 56.42 4 52 4C47.58 4 44 7.58 44 12C44 16.42 47.58 20 52 20Z" fill="#106690"/>
</g>
<g clip-path="url(#clip1_30_608)">
<path d="M12 11V8L8 12L12 16V13H16V11H12ZM12 2C6.48 2 2 6.48 2 12C2 17.52 6.48 22 12 22C17.52 22 22 17.52 22 12C22 6.48 17.52 2 12 2ZM12 20C7.58 20 4 16.42 4 12C4 7.58 7.58 4 12 4C16.42 4 20 7.58 20 12C20 16.42 16.42 20 12 20Z" fill="#106690"/>
</g>
<defs>
<clipPath id="clip0_30_608">
<rect width="24" height="24" fill="white" transform="translate(40)"/>
</clipPath>
<clipPath id="clip1_30_608">
<rect width="24" height="24" fill="white" transform="matrix(-1 0 0 1 24 0)"/>
</clipPath>
</defs>
</svg>
